<?xml version="1.0" encoding="UTF-8"?>
<svg id="_Слой_1" data-name="Слой 1" xmlns="http://www.w3.org/2000/svg" viewBox="0 0 411.2 121">
  <defs>
    <style>
      .cls-1, .cls-2 {
        fill: #fff;
      }

      .cls-2 {
        fill-rule: evenodd;
      }
    </style>
  </defs>
  <path class="cls-1" d="m208,26c.8-2,1.4-5.3,1.4-9.1v-.1c2.8,3.5,5.5,4.9,6.2,3.2.7-1.8-1-6.2-3.9-10-2.1-2.7-4.1-4.3-5.4-4.3h-.2c-1.8,0-3.3,5-3.3,11.2,0,3,.3,5.8.9,7.8-1.1-.2-2.2-.3-3.4-.3s-2.3.1-3.4.3c.6-2.6.9-6.2.9-10.2,0-8-1.5-14.5-3.3-14.5s-3.2,6.5-3.2,14.5c0,4.7.5,8.9,1.3,11.6-6.3,2.9-10.8,9.3-10.8,16.7,0,10.2,8.3,18.5,18.4,18.5s18.5-8.3,18.5-18.5c.2-7.4-4.2-13.8-10.7-16.8Zm-7.6,29.7c-7,0-12.8-5.8-12.8-12.9s5.7-12.8,12.8-12.8,12.9,5.8,12.9,12.8c0,7.2-5.8,12.9-12.9,12.9Z"/>
  <path class="cls-1" d="m387.1,83.4c-1-1.7-4.4-1.6-7.5.2-1.3.8-2.3,1.7-3,2.6-1.7-1.9-3.8-3.4-6.1-4.4,1-2.8,3-6.9,6-7.8,3.7-1.1,9.5,2.6,9.8,2.8-.1-.2-4.9-8.1-9.8-8.4-4.8-.3-9,7.7-10.9,12-.9-.1-1.8-.2-2.7-.2s-1.8.1-2.6.2c-1.9-4.2-6.1-12.4-11-12.1-5,.3-9.7,8.1-9.8,8.4.3-.2,6.1-3.9,9.8-2.8,3.1.9,5.1,5.1,6.1,7.9-2.3,1-4.4,2.6-6.1,4.4-.7-1-1.7-1.9-3-2.7-3.1-1.9-6.5-2-7.5-.2-1,1.7.7,4.6,3.8,6.5,1.2.7,2.4,1.2,3.5,1.4-1,2.3-1.6,4.8-1.6,7.5,0,10.3,8.3,18.5,18.4,18.5s18.5-8.3,18.5-18.5c0-2.7-.6-5.2-1.6-7.5,1.1-.2,2.3-.7,3.5-1.4,3.2-1.7,4.8-4.6,3.8-6.4Zm-24.1,28.3c-7,0-12.8-5.8-12.8-12.9s5.7-12.8,12.8-12.8,12.9,5.8,12.9,12.8c0,7.1-5.8,12.9-12.9,12.9Z"/>
  <path class="cls-1" d="m304.9,116.1v-34.6h16.8c5.5,0,10.1,4.5,10.1,10.1,0,2.9-1.2,5.2-3.2,6.9,2.4,1.7,4,4.4,4,7.6,0,5.6-4.5,10.1-10.1,10.1h-17.6v-.1Zm5.6-5.6h12c2.4,0,4.4-2,4.4-4.5s-2-4.6-4.4-4.6h-12v9.1Zm0-14.5h11.1c2.4,0,4.4-1.9,4.4-4.4s-2-4.5-4.4-4.5h-11.1v8.9Z"/>
  <path class="cls-1" d="m294.4,98.7c0-7-5.7-12.8-12.9-12.8s-12.8,5.8-12.8,12.8,5.7,12.9,12.8,12.9c7.2.1,12.9-5.7,12.9-12.9Zm-31.3,0c0-10.1,8.3-18.4,18.4-18.4s18.5,8.3,18.5,18.4-8.3,18.5-18.5,18.5c-10.1.1-18.4-8.2-18.4-18.5Z"/>
  <path class="cls-1" d="m226.4,116.1v-34.6h5.7v29h18.3v-29h5.6v29h4.3v10.5h-5.7v-4.9s-28.2,0-28.2,0Z"/>
  <path class="cls-1" d="m179.8,116.1v-34.6h7.3l12.7,27.6,12.7-27.6h7.3v34.6h-5.6v-25.1l-11.6,25.1h-5.6l-11.5-24.9v24.9s-5.7,0-5.7,0Z"/>
  <path class="cls-1" d="m147.4,116.1v-34.6h26.8v5.6h-21.1v8.8h15.4v5.6h-15.4v9h21.1v5.6s-26.8,0-26.8,0Z"/>
  <path class="cls-1" d="m110.5,116.1v-34.6h5.6v14.4h19.1v-14.4h5.6v34.6h-5.6v-14.6h-19v14.6s-5.7,0-5.7,0Z"/>
  <path class="cls-1" d="m375.7,60.2l15-34.6h5.5l15,34.6h-6.1l-2-4.8h-19.1l-2.1,4.8h-6.2Zm10.5-10.3h14.4l-7.2-16.9-7.2,16.9Z"/>
  <path class="cls-1" d="m332,60.2V25.6h7.3l12.7,27.6,12.7-27.6h7.3v34.6h-5.6v-25.2l-11.6,25.1h-5.6l-11.5-24.9v24.9h-5.7v.1Z"/>
  <path class="cls-1" d="m298.4,60.2V25.6h15.1c7.5,0,13.7,5.8,13.7,13s-6.2,13-13.7,13h-9.5v8.6h-5.6Zm5.7-14.1h9.5c4.5,0,8.1-3.4,8.1-7.5s-3.7-7.5-8.2-7.5h-9.4v15Z"/>
  <path class="cls-1" d="m266,60.2V25.6h26.8v5.6h-21.1v8.8h15.4v5.6h-15.4v9h21.1v5.6s-26.8,0-26.8,0Z"/>
  <path class="cls-1" d="m238.9,60.2v-3.6c-10-.9-16.7-7.3-16.7-15.9,0-9.4,8-16.2,19.5-16.2s19.5,6.8,19.5,16.2c0,8.7-6.7,15-16.7,15.9v3.6h-5.6Zm0-9.2v-20.8c-6.1.8-11.2,4.3-11.2,10.5.1,6.1,5.2,9.5,11.2,10.3Zm5.6-20.8v20.8c6-.8,11.2-4.1,11.2-10.4s-5.2-9.6-11.2-10.4Z"/>
  <path class="cls-1" d="m150.3,60.2V25.6h5.7v14.5h7.5l10.1-14.5h6.9l-12.1,17.3,12.1,17.4h-6.9l-10.2-14.5h-7.4v14.5h-5.7v-.1Z"/>
  <path class="cls-1" d="m110.5,51.2l5-2.6c2.1,4.2,6.4,7,11.4,7,6,0,11.2-4.2,12.4-10h-18.1v-5.6h18.1c-1.2-5.7-6.4-10.1-12.5-10.1-5,0-9.3,2.8-11.4,7l-5-2.6c3-6,9.2-10.1,16.4-10.1,10.2,0,18.4,8.3,18.4,18.4s-8.3,18.5-18.4,18.5c-7,.2-13.2-3.8-16.3-9.9Z"/>
  <path class="cls-2" d="m45.5,36.1c1.4.2,2.3,1.5,2,2.9l-4.9,26.9c-.2,1.4-1.5,2.3-2.9,2-1.4-.2-2.3-1.5-2-2.9l4.9-26.9c.3-1.4,1.6-2.3,2.9-2Zm-25.2,6.2c1.3-.5,2.7.2,3.2,1.4l8.7,22.6c.5,1.3-.2,2.7-1.4,3.2-1.3.5-2.7-.2-3.2-1.4l-8.6-22.6c-.6-1.3,0-2.7,1.3-3.2Zm40.1,18.8c.9,1,.9,2.6-.1,3.5l-9.2,8.5c-1,.9-2.6.9-3.5-.1s-.9-2.6.1-3.5l9.2-8.5c.9-1,2.5-1,3.5.1Zm-50,6.8c.6-1.3,2.1-1.8,3.3-1.2l9.8,4.5c1.3.6,1.8,2.1,1.2,3.3-.6,1.3-2.1,1.8-3.3,1.2l-9.8-4.5c-1.3-.6-1.8-2.1-1.2-3.3Z"/>
  <path class="cls-2" d="m52,113.5h-.1c.1.1.1,0,.1,0h0Z"/>
  <path class="cls-2" d="m50,18.6C22.4,18.6,0,41,0,68.6s22.4,50,50,50c1.2,0,2.3,0,3.5-.1l46.4-.3v-45.6c.1-1.3.2-2.6.2-4-.2-27.6-22.5-50-50.1-50Zm42.57,35.71l-6.67,1.39-3.5-4.4,8.5-1.3c.69,1.37,1.18,2.84,1.67,4.31Zm-22.67,4.19l8-9,7,9h-15Zm12.5,2.5v6.57c-3.23.21-6.72.55-10,1.09v-7.66h10ZM6.19,79.1c-.83-3.4-1.29-6.93-1.29-10.6,0-24.8,20.1-45,45-45,16.3.1,30.6,8.8,38.5,21.8l-11.8,1.9-9.2,10.4v12.13c-.21.06-.41.11-.61.17-5.91,1.76-13.5,6.07-19.4,9.78-.21-.99-.56-1.95-1.09-2.88-.7-1.4-1.8-2.6-3-3.5-1.3-1-2.7-1.6-4.2-2-1.5-.3-3.1-.3-4.5-.1-1.6.3-3,.9-4.3,1.8-1.3.9-2.4,2.1-3.2,3.4-.28.48-.52.98-.72,1.48-.14-.02-.28-.04-.43-.06-7.31-1.21-16.14.46-19.69,1.26-.02.01-.05.01-.07.02Zm38.91,34.1c-15.7-1.7-29-11.4-35.6-25.1-.2-.39-.37-.78-.54-1.17,3.71,1.92,10.47,5.47,14.54,7.83,3.26,1.89,5.92,3.61,7.92,5.11,1.91,1.45,4.21,3.44,6.82,5.93,2.95,2.82,5.68,5.68,7.33,7.45-.16-.01-.31-.03-.47-.05Zm-3.41-11.02c-2.75-2.62-5.19-4.74-7.26-6.3-2.16-1.63-4.99-3.46-8.42-5.45-3.83-2.22-9.82-5.38-13.68-7.39,3.72-.56,8.68-.98,12.85-.27.05,0,.1.01.14.01.66.08,1.22.22,1.7.42.06.03.14.05.21.08.12.05.29.11.48.15.06.03.11.05.16.08.16.07.31.14.47.2,1.57.74,2.93,1.38,4.09,2.18,3.06,2.01,5.23,4.45,8.39,8.54,1.59,2.06,3.79,5.89,6.03,12.9-1.49-1.54-3.27-3.34-5.16-5.15Zm43.21-6.18c-1.4,1.9-2.3,2.9-3.9,4.5-1.3.9-2.4,1.7-3.3,2.4-1.7,1.3-3.1,2.3-5.4,3.6-3.4,1.9-5.2,2.8-8.7,4-2.1.7-5,1.4-7.4,2-.9.23-1.69.39-2.36.55-.02-.08-.04-.16-.07-.24-.09-.27-.22-.51-.38-.73-.01-.05-.03-.11-.04-.17-.01-.04-.02-.09-.03-.13-.25-.97-.5-1.91-.76-2.82.96-.7,10.41-7.49,18.33-10.19,4.21-1.4,10.3-3.06,15.06-4.26-.3.47-.64.95-1.05,1.49Zm7-12.6c-.8,1.9-1.4,3.1-2.3,4.7-.05.14-.12.26-.19.39-.23.05-.65.14-1.21.28-.21.06-.41.13-.59.23-.17.01-.34.03-.5.07-5.04,1.23-12.72,3.26-17.82,4.96-7.15,2.44-15.06,7.66-18.29,9.9-.65-1.89-1.34-3.64-2.04-5.24,2.78-2.3,13.07-10.46,21.69-12.88,6.7-1.81,17.84-2.78,21.47-3.06-.08.23-.15.45-.22.65Zm1.7-6.3v.1c0,.09-.09.27-.09.46-.14.02-.3.04-.46.06-.17-.02-.35-.03-.53-.01-3.53.25-15.64,1.23-23.2,3.28-8.89,2.5-18.8,10-22.69,13.13-.6-1.01-1.22-1.93-1.85-2.75-.69-.89-1.38-1.75-2.06-2.59,4.58-3.18,17.17-11.62,25.47-14.08,8.95-2.58,23.59-2.46,26.45-2.41l-1.04,4.81Zm-6.2-9.77v-6.73l6.5-1.38c.6,2.56.91,5.28.98,8.07-1.02-.02-3.84-.06-7.48.04Z"/>
  <polygon class="cls-2" points="84.9 58.5 69.9 58.5 77.9 49.5 84.9 58.5"/>
</svg>