<svg viewBox="0 0 412 122" fill="none" xmlns="http://www.w3.org/2000/svg">
<path fill-rule="evenodd" clip-rule="evenodd" d="M206.65 28.4206C204.853 28.4206 203.396 23.4065 203.396 17.2213C203.396 11.0361 204.853 6.02203 206.65 6.02203C206.707 6.02203 206.763 6.02694 206.818 6.03663C208.096 6.06919 210.173 7.6555 212.228 10.3418C215.095 14.0889 216.833 18.5574 216.11 20.3223C215.411 22.0268 212.674 20.5867 209.905 17.1111C209.905 17.1478 209.905 17.1845 209.905 17.2213C209.905 23.4065 208.448 28.4206 206.65 28.4206Z" fill="white"/>
<ellipse cx="195.198" cy="14.8186" rx="3.25469" ry="14.4898" fill="white"/>
<ellipse cx="381.999" cy="87.0879" rx="3.62793" ry="6.54871" transform="rotate(-120.892 381.999 87.0879)" fill="white"/>
<ellipse cx="3.62793" cy="6.54871" rx="3.62793" ry="6.54871" transform="matrix(0.513418 -0.858138 -0.858138 -0.513418 348.739 93.5634)" fill="white"/>
<path d="M376.361 99.0338C376.361 92.0347 370.625 86.2506 363.48 86.2506C356.432 86.2506 350.697 92.0347 350.697 99.0338C350.697 106.179 356.432 111.963 363.48 111.963C370.625 111.963 376.361 106.179 376.361 99.0338ZM345.059 99.0338C345.059 88.9239 353.322 80.6124 363.48 80.6124C373.736 80.6124 381.999 88.9239 381.999 99.0338C381.999 109.29 373.736 117.552 363.48 117.552C353.322 117.552 345.059 109.29 345.059 99.0338Z" fill="white"/>
<path d="M305.407 116.386V81.7789H322.176C327.717 81.7789 332.237 86.2992 332.237 91.8402C332.237 94.7565 331.022 97.041 329.078 98.6936C331.508 100.346 333.112 103.068 333.112 106.325C333.112 111.914 328.592 116.386 323.051 116.386H305.407ZM311.046 110.796H323.051C325.481 110.796 327.474 108.755 327.474 106.276C327.474 103.797 325.481 101.707 323.051 101.707H311.046V110.796ZM311.046 96.3119H322.128C324.558 96.3119 326.551 94.3677 326.551 91.8888C326.551 89.41 324.558 87.3685 322.128 87.3685H311.046V96.3119Z" fill="white"/>
<path d="M294.9 99.0338C294.9 92.0347 289.164 86.2506 282.019 86.2506C274.972 86.2506 269.236 92.0347 269.236 99.0338C269.236 106.179 274.972 111.963 282.019 111.963C289.164 111.963 294.9 106.179 294.9 99.0338ZM263.598 99.0338C263.598 88.9239 271.861 80.6124 282.019 80.6124C292.275 80.6124 300.538 88.9239 300.538 99.0338C300.538 109.29 292.275 117.552 282.019 117.552C271.861 117.552 263.598 109.29 263.598 99.0338Z" fill="white"/>
<path d="M226.899 116.386V81.7789H232.586V110.796H250.91V81.7789H256.548V110.796H260.825V121.295H255.139V116.386H226.899Z" fill="white"/>
<path d="M180.333 116.386V81.7789H187.624L200.31 109.338L213.045 81.7789H220.335V116.386H214.697V91.257L203.129 116.386H197.491L186.02 91.4514V116.386H180.333Z" fill="white"/>
<path d="M147.914 116.386V81.7789H174.695V87.4171H153.552V96.2147H168.96V101.804H153.552V110.796H174.695V116.386H147.914Z" fill="white"/>
<path d="M111.032 116.386V81.7789H116.671V96.2147H135.772V81.7789H141.411V116.386H135.772V101.804H116.671V116.386H111.032Z" fill="white"/>
<path d="M376.16 60.4572L391.131 25.8502H396.672L411.642 60.4572H405.518L403.476 55.6939H384.375L382.285 60.4572H376.16ZM386.708 50.1529H401.095L393.901 33.2869L386.708 50.1529Z" fill="white"/>
<path d="M332.463 60.4572V25.8502H339.754L352.44 53.4095L365.175 25.8502H372.465V60.4572H366.827V35.3283L355.259 60.4572H349.621L338.15 35.5227V60.4572H332.463Z" fill="white"/>
<path d="M298.951 60.4572V25.8502H314.067C321.553 25.8502 327.774 31.6343 327.774 38.8765C327.774 46.0215 321.601 51.8541 314.067 51.8541H304.589V60.4572H298.951ZM304.589 46.4103H314.067C318.539 46.4103 322.185 43.0079 322.185 38.8765C322.185 34.745 318.491 31.3426 314.019 31.3426H304.589V46.4103Z" fill="white"/>
<path d="M266.531 60.4572V25.8502H293.313V31.4885H272.17V40.286H287.578V45.8756H272.17V54.8676H293.313V60.4572H266.531Z" fill="white"/>
<path d="M239.447 60.4573V56.8605C229.434 55.937 222.727 49.5697 222.727 40.9179C222.727 31.4885 230.698 24.6837 242.218 24.6837C253.737 24.6837 261.757 31.4885 261.757 40.9179C261.757 49.5697 255.049 55.937 245.037 56.8605V60.4573H239.447ZM239.447 51.2709V30.4678C233.372 31.2455 228.268 34.7936 228.268 40.9179C228.268 47.1394 233.372 50.4932 239.447 51.2709ZM245.037 30.4678V51.2709C251.015 50.4932 256.216 47.1394 256.216 40.9179C256.216 34.7936 251.015 31.2455 245.037 30.4678Z" fill="white"/>
<path d="M213.78 43.1052C213.78 36.106 208.045 30.322 200.9 30.322C193.852 30.322 188.116 36.106 188.116 43.1052C188.116 50.2501 193.852 56.0342 200.9 56.0342C208.045 56.0342 213.78 50.2501 213.78 43.1052ZM182.478 43.1052C182.478 32.9952 190.741 24.6837 200.9 24.6837C211.155 24.6837 219.418 32.9952 219.418 43.1052C219.418 53.3609 211.155 61.6238 200.9 61.6238C190.741 61.6238 182.478 53.3609 182.478 43.1052Z" fill="white"/>
<path d="M150.809 60.4572V25.8502H156.496V40.3346H163.981L174.091 25.8502H180.944L168.842 43.1051L180.944 60.4572H174.091L163.932 45.9729H156.496V60.4572H150.809Z" fill="white"/>
<path d="M111.032 51.5139L116.039 48.9378C118.177 53.1178 122.455 55.9856 127.461 55.9856C133.488 55.9856 138.64 51.7569 139.904 46.0215H121.823V40.3832H139.953C138.738 34.6964 133.537 30.3219 127.461 30.3219C122.455 30.3219 118.129 33.141 116.039 37.3211L111.032 34.745C114.046 28.7666 120.267 24.6837 127.461 24.6837C137.62 24.6837 145.882 32.9952 145.882 43.1051C145.882 53.3609 137.62 61.6238 127.461 61.6238C120.267 61.6238 114.095 57.5409 111.032 51.5139Z" fill="white"/>
<path d="M365.064 83.3914C365.064 83.3914 370.554 68.4316 377.059 68.8156C382.093 69.1127 386.892 77.1843 386.892 77.1843C386.892 77.1843 380.89 73.2736 377.059 74.3947C372.397 75.7589 370.224 84.7859 370.224 84.7859L365.064 83.3914Z" fill="white" stroke="white" stroke-width="1.37015" stroke-linejoin="round"/>
<path d="M361.019 83.3914C361.019 83.3914 355.53 68.4316 349.025 68.8156C343.991 69.1127 339.192 77.1843 339.192 77.1843C339.192 77.1843 345.194 73.2736 349.025 74.3947C353.686 75.7589 355.859 84.7859 355.859 84.7859L361.019 83.3914Z" fill="white" stroke="white" stroke-width="1.37015" stroke-linejoin="round"/>
<path d="M41.1663 88.2838C41.1663 88.2838 58.3199 75.7586 69.2059 72.6315C79.638 69.6347 96.8887 70.154 96.8887 70.154" stroke="white" stroke-width="5" stroke-linecap="round" stroke-linejoin="round"/>
<path d="M48.2474 98.6013C48.2474 98.6013 60.9589 87.5695 71.6927 84.5953C80.3985 82.1831 96.1086 81.3301 96.1086 81.3301M52.6296 108.225C52.6296 108.225 62.9345 100.626 71.6927 97.6561C79.2255 95.1022 91.8355 92.1471 91.8355 92.1471M53.169 115.314C53.169 115.314 50.1852 101.328 44.6699 94.1792C40.436 88.6915 37.4732 85.4848 31.1179 82.7185C22.2908 78.8763 6.16968 83.3388 6.16968 83.3388" stroke="white" stroke-width="5" stroke-linecap="round" stroke-linejoin="round"/>
<path d="M45.1918 85.2536C45.5846 84.1153 45.7343 82.9073 45.6311 81.7077C45.5278 80.508 45.174 79.3433 44.5924 78.2889C44.0109 77.2346 43.2146 76.314 42.2549 75.5866C41.2953 74.8593 40.1937 74.3414 39.0214 74.0665C37.8491 73.7915 36.6322 73.7656 35.4492 73.9905C34.2663 74.2153 33.1437 74.6859 32.154 75.3717C31.1643 76.0576 30.3296 76.9435 29.7037 77.9722C29.0778 79.0009 28.6748 80.1495 28.5206 81.3437" stroke="white" stroke-width="5"/>
<path d="M45.6311 81.7077C45.7343 82.9073 45.5847 84.1153 45.1918 85.2536L41.0436 88.3571L36.022 84.9424L28.5206 81.3437C28.6748 80.1495 29.0778 79.0009 29.7037 77.9722C30.3296 76.9435 31.1643 76.0576 32.154 75.3717C33.1437 74.6859 34.2663 74.2153 35.4492 73.9905C36.6322 73.7656 37.8491 73.7915 39.0214 74.0665C40.1937 74.3414 41.2953 74.8593 42.2549 75.5866C43.2146 76.314 44.0109 77.2346 44.5924 78.2889C45.174 79.3433 45.5278 80.508 45.6311 81.7077Z" fill="white" stroke="white" stroke-width="5"/>
<path d="M49.8686 71.4885L59.0295 63.0369M40.6941 65.776L45.5813 38.8322M30.3402 67.4549L21.7056 44.8895M22.8913 73.6785L13.1375 69.1997" stroke="white" stroke-width="5" stroke-linecap="round" stroke-linejoin="round"/>
<path d="M70.3787 58.749H85.3619L78.357 49.7588L70.3787 58.749Z" fill="white"/>
<path d="M70.3787 72.2187C70.3787 72.2187 70.3787 64.0092 70.3787 58.749M70.3787 58.749C76.23 58.749 85.3619 58.749 85.3619 58.749M70.3787 58.749C73.4944 55.2381 78.357 49.7588 78.357 49.7588M70.3787 58.749H85.3619M70.3787 58.749L78.357 49.7588M85.3619 58.749V70.0097M85.3619 58.749L78.357 49.7588M85.3619 58.749L95.5653 56.6492M78.357 49.7588L91.8191 47.6162" stroke="white" stroke-width="5"/>
<path d="M50.4571 115.212C50.4571 115.212 46.2431 110.51 41.3553 105.843C39.0354 103.629 36.5638 101.422 34.319 99.7306C31.9768 97.9656 29.038 96.1254 26.147 94.4498C20.2344 91.0227 8.86206 85.1949 8.86206 85.1949" stroke="white" stroke-width="5" stroke-linecap="round"/>
<circle cx="50.457" cy="68.8955" r="47.4905" stroke="white" stroke-width="5"/>
<path d="M52.9612 116.27L97.785 115.972L83.0058 102.823C79.4451 105.25 77.6525 106.941 73.888 109.037C70.455 110.949 68.4641 111.986 64.7252 113.196C60.2837 114.632 52.9612 116.27 52.9612 116.27Z" fill="white"/>
<path d="M97.785 115.972V71.8779L96.5132 77.8836C96.5132 77.8836 95.5413 82.0862 94.5396 84.65C93.5094 87.2871 92.6472 88.6457 91.2974 91.1345C89.8503 93.8027 89.1429 95.3807 87.3503 97.8304C85.824 99.9163 84.8607 101.023 83.0058 102.823L97.785 115.972Z" fill="white"/>
<path d="M97.785 115.971V71.8779L96.5132 77.8836C96.5132 77.8836 95.5413 82.0862 94.5396 84.65C93.5094 87.2871 92.6472 88.6457 91.2974 91.1345C89.8503 93.8027 89.1429 95.3807 87.3503 97.8304C85.824 99.9163 84.8607 101.023 83.0058 102.823M97.785 115.971L52.9612 116.27C52.9612 116.27 60.2837 114.632 64.7252 113.196C68.4641 111.986 70.455 110.949 73.888 109.037C77.6525 106.941 79.4451 105.25 83.0058 102.823M97.785 115.971C97.785 115.971 88.4275 107.701 83.0058 102.823M97.785 115.971L83.0058 102.823" stroke="white" stroke-width="5"/>
</svg>
